<!DOCTYPE svg PUBLIC "-//W3C//DTD SVG 1.1//EN" "http://www.w3.org/Graphics/SVG/1.1/DTD/svg11.dtd">
<!-- Uploaded to: SVG Repo, www.svgrepo.com, Transformed by: SVG Repo Mixer Tools -->
<svg width="800px" height="800px" viewBox="0 0 32 32" xmlns="http://www.w3.org/2000/svg" fill="none">
<g id="SVGRepo_bgCarrier" stroke-width="0"/>
<g id="SVGRepo_tracerCarrier" stroke-linecap="round" stroke-linejoin="round"/>
<g id="SVGRepo_iconCarrier"> <path stroke="#959BA2" stroke-linejoin="round" stroke-width="2" d="M5 11c0-1 1-2 2-2h18c1 0 2 1 2 2v4h-2v10c0 1-1 2-2 2H9c-1 0-2-1-2-2V15H5v-4z"/> <path stroke="#959BA2" stroke-linecap="round" stroke-linejoin="round" stroke-width="2" d="M7 15h18M16 9v18M16 9c-1.333-2.833-4.1-7.4-6.5-5-2.4 2.4 3 5 6.5 5zM16 9c0-4.5 4.5-7.5 6.5-5.5C25 6 20 9 16 9z"/> </g>
</svg>