<!DOCTYPE svg PUBLIC "-//W3C//DTD SVG 1.1//EN" "http://www.w3.org/Graphics/SVG/1.1/DTD/svg11.dtd">
<!-- Uploaded to: SVG Repo, www.svgrepo.com, Transformed by: SVG Repo Mixer Tools -->
<svg width="800px" height="800px" viewBox="0 0 24 24" fill="none" xmlns="http://www.w3.org/2000/svg">
<g id="SVGRepo_bgCarrier" stroke-width="0"/>
<g id="SVGRepo_tracerCarrier" stroke-linecap="round" stroke-linejoin="round"/>
<g id="SVGRepo_iconCarrier"> <path d="M9.00001 18.25C8.8993 18.2466 8.80034 18.2227 8.70921 18.1797C8.61807 18.1367 8.53667 18.0756 8.47001 18L3.47001 13C3.37467 12.9382 3.29463 12.8556 3.23592 12.7583C3.17721 12.661 3.14136 12.5517 3.13109 12.4385C3.12082 12.3254 3.13639 12.2114 3.17663 12.1051C3.21686 11.9989 3.28071 11.9031 3.36336 11.8252C3.446 11.7472 3.54528 11.689 3.65369 11.6551C3.76211 11.6211 3.87682 11.6122 3.98918 11.629C4.10155 11.6458 4.20861 11.688 4.3023 11.7523C4.39599 11.8165 4.47385 11.9013 4.53001 12L9.00001 16.44L19.47 6.00003C19.611 5.90864 19.7785 5.86722 19.9458 5.88241C20.1131 5.89759 20.2705 5.96851 20.3927 6.08379C20.5149 6.19907 20.5948 6.35203 20.6197 6.51817C20.6446 6.68431 20.613 6.85399 20.53 7.00003L9.53001 18C9.46334 18.0756 9.38194 18.1367 9.29081 18.1797C9.19967 18.2227 9.10072 18.2466 9.00001 18.25Z" fill="#16A34A"/> </g>
</svg>