<!DOCTYPE svg PUBLIC "-//W3C//DTD SVG 1.1//EN" "http://www.w3.org/Graphics/SVG/1.1/DTD/svg11.dtd">
<!-- Uploaded to: SVG Repo, www.svgrepo.com, Transformed by: SVG Repo Mixer Tools -->
<svg height="800px" width="800px" version="1.1" id="Layer_1" xmlns="http://www.w3.org/2000/svg" xmlns:xlink="http://www.w3.org/1999/xlink" viewBox="0 0 512.001 512.001" xml:space="preserve" fill="#ffffff">
<g id="SVGRepo_bgCarrier" stroke-width="0"/>
<g id="SVGRepo_tracerCarrier" stroke-linecap="round" stroke-linejoin="round"/>
<g id="SVGRepo_iconCarrier"> <path style="fill:#ffffff;" d="M367.506,260.161c-8.973-2.124-14.525-11.119-12.401-20.093l16.57-70.006 c2.124-8.972,11.114-14.524,20.093-12.401c8.973,2.124,14.525,11.119,12.401,20.093l-16.57,70.006 C385.477,256.724,376.489,262.286,367.506,260.161z"/> <g> <path style="fill:#ffffff;" d="M508.812,366.882c-5.422-7.461-15.862-9.114-23.32-3.693c-15.723,11.424-32.937,21.54-51.467,30.302 L383.83,291.806c-4.082-8.269-14.097-11.662-22.361-7.582c-8.269,4.082-11.664,14.093-7.582,22.361l49.264,99.803 c-94.638,34.597-206.371,33.412-297.167,0.356l49.44-100.16c4.082-8.268,0.687-18.279-7.582-22.361 c-8.267-4.082-18.278-0.687-22.361,7.582L75.083,393.906c-17.358-8.183-33.693-17.617-48.771-28.24 c-7.537-5.31-17.953-3.504-23.264,4.034s-3.504,17.953,4.034,23.264c137.947,97.183,361.003,96.804,498.036-2.76 C512.577,384.783,514.231,374.342,508.812,366.882z"/> <path style="fill:#ffffff;" d="M234.117,260.611H133.305c-9.72,0-17.401-8.289-16.645-17.992l3.751-48.176l-34.226-0.03 c-5.565-0.004-10.761-2.783-13.857-7.405L52.673,157.66c-5.112-7.633-3.096-17.962,4.51-23.114l78.337-53.052 c2.764-1.871,6.025-2.872,9.362-2.872h11.715V63.349c0-13.226,14.697-21.202,25.786-14.004 c35.166,22.83,58.106,61.414,61.362,103.213l7.017,90.06C251.517,252.311,243.849,260.611,234.117,260.611z"/> </g> <path style="fill:#ffffff;" d="M393.983,315.89H115.329c-24.447,0-44.336-19.889-44.336-44.336s19.889-44.336,44.336-44.336h278.654 c24.447,0,44.336,19.889,44.336,44.336C438.318,296.001,418.428,315.89,393.983,315.89z"/> <path style="fill:#ffffff;" d="M508.812,366.882c-5.422-7.461-15.862-9.114-23.32-3.693c-15.723,11.424-32.937,21.54-51.467,30.302 L383.83,291.806c-4.082-8.269-14.097-11.662-22.361-7.582c-8.269,4.082-11.664,14.093-7.582,22.361l49.264,99.803 c-46.433,16.975-96.979,25.315-147.15,25.524v33.45c90.284-0.313,180.489-25.295,249.117-75.159 C512.577,384.783,514.231,374.342,508.812,366.882z"/> <path style="fill:#ffffff;" d="M393.983,227.219H256v88.671h137.982c24.447,0,44.336-19.889,44.336-44.336 S418.428,227.219,393.983,227.219z"/> </g>
</svg>