<!DOCTYPE svg PUBLIC "-//W3C//DTD SVG 1.1//EN" "http://www.w3.org/Graphics/SVG/1.1/DTD/svg11.dtd">
<!-- Uploaded to: SVG Repo, www.svgrepo.com, Transformed by: SVG Repo Mixer Tools -->
<svg fill="#616161" height="800px" width="800px" version="1.1" id="Capa_1" xmlns="http://www.w3.org/2000/svg" xmlns:xlink="http://www.w3.org/1999/xlink" viewBox="0 0 490.082 490.082" xml:space="preserve" stroke="#616161">
<g id="SVGRepo_bgCarrier" stroke-width="0"/>
<g id="SVGRepo_tracerCarrier" stroke-linecap="round" stroke-linejoin="round"/>
<g id="SVGRepo_iconCarrier"> <g> <g> <path d="M450.991,0h-411.8c-20.9,0-38.6,16.7-38.6,38.6v273.1c0,20.9,16.7,38.6,38.6,38.6h25v119.9c0,8.3,5.2,15.6,12.5,18.8 c2.1,1,14.9,3.4,22.9-5.2l127.2-134.5h224.1c20.9,0,38.6-16.7,38.6-38.6V38.6C489.591,17.7,472.891,0,450.991,0z M449.991,309.6 h-231.5c-5.2,0-10.4,2.1-14.6,6.3l-99,103.2v-88.6c0-11.5-9.4-20.9-20.9-20.9h-42.7v-269h408.7L449.991,309.6L449.991,309.6z"/> <g> <path d="M347.391,150.3c0-22.9-18.6-41.5-41.5-41.5s-41.5,18.6-41.5,41.5c0,13.8,6.8,26.1,17.2,33.6l-20.7,51.7h40.7l38.7-62l0,0 C344.691,166.9,347.391,158.9,347.391,150.3z"/> <path d="M229.391,150.3c0-22.9-18.6-41.5-41.5-41.5s-41.5,18.6-41.5,41.5c0,13.8,6.8,26.1,17.2,33.6l-20.7,51.7h40.7l38.7-62l0,0 C226.691,166.9,229.391,158.9,229.391,150.3z"/> </g> </g> </g> </g>
</svg>